<svg version="1.1" width="229" height="297.72222900390625" viewBox="0 -2.6399993896484375 229 297.72222900390625" xmlns="http://www.w3.org/2000/svg" xmlns:xlink="http://www.w3.org/1999/xlink">
  <!-- Exported by Scratch - http://scratch.mit.edu/ -->
  <path id="ID0.8776633776724339" fill="#CCCCCC" stroke="#000000" stroke-width="1.9626269907774383" d="M 1 34.0019 L 201 34.0019 L 201 136.0019 L 1 136.0019 L 1 34.0019 Z "/>
  <text id="ID0.37717859260737896" fill="#000000" text-anchor="start" font-family="Sans Serif" font-size="22" transform="matrix(0.689394, 0, 0, 0.689394, 43.1288, 36.9318)" stroke-width="1" alignment-baseline="text-before-edge" xml:space="preserve"><tspan x="0" style="white-space: pre" dy="1.13em">Mining - 'M' key</tspan></text>
  <text id="ID0.40182115975767374" fill="#000000" text-anchor="start" font-family="Sans Serif" font-size="22" transform="matrix(0.689394, 0, 0, 0.689394, 28.6288, 85.2318)" stroke-width="1" alignment-baseline="text-before-edge" xml:space="preserve"><tspan x="0" style="white-space: pre" dy="1.13em">Rotating - ARROWS</tspan></text>
  <text id="ID0.0655991118401289" fill="#000000" text-anchor="start" font-family="Sans Serif" font-size="22" transform="matrix(0.689394, 0, 0, 0.689394, 20.3788, 61.0818)" stroke-width="1" alignment-baseline="text-before-edge" xml:space="preserve"><tspan x="0" style="white-space: pre" dy="1.13em">Moving - WASD/ZQSD</tspan></text>
  <text id="ID0.603547964245081" fill="#000000" text-anchor="start" font-family="Sans Serif" font-size="22" transform="matrix(0.689394, 0, 0, 0.689394, 36.1788, 108.032)" stroke-width="1" alignment-baseline="text-before-edge" xml:space="preserve"><tspan x="0" style="white-space: pre" dy="1.13em">Jumping - SPACE</tspan></text>
  <text id="ID0.6101005952805281" fill="#FFFFFF" text-anchor="start" font-family="Serif" font-size="22" transform="matrix(0.81982, 0, 0, 0.81982, 15.6896, 186.321)" stroke-width="1" alignment-baseline="text-before-edge" xml:space="preserve"><tspan x="0" style="white-space: pre" dy="1.25em">Generating world...</tspan></text>
  <text id="ID0.6101005952805281" fill="#000000" text-anchor="start" font-family="Serif" font-size="22" transform="matrix(0.81982, 0, 0, 0.81982, 15.5396, 184.821)" stroke-width="1" alignment-baseline="text-before-edge" xml:space="preserve"><tspan x="0" style="white-space: pre" dy="1.25em">Generating world...</tspan></text>
  <text id="ID0.3265845002606511" fill="#FFFFFF" text-anchor="start" font-family="Sans Serif" font-size="22" transform="matrix(1, 0, 0, 1, 33, 0.15)" stroke-width="1" alignment-baseline="text-before-edge" xml:space="preserve"><tspan x="0" style="white-space: pre" dy="1.13em">How to play?</tspan></text>
  <text id="ID0.3265845002606511" fill="#000000" text-anchor="start" font-family="Sans Serif" font-size="22" transform="matrix(1, 0, 0, 1, 32.55, -2.5)" stroke-width="1" alignment-baseline="text-before-edge" xml:space="preserve"><tspan x="0" style="white-space: pre" dy="1.13em">How to play?</tspan></text>
  <path id="ID0.15582397114485502" fill="none" stroke="#000000" stroke-width="2" stroke-linecap="round" d="M 222 283 C 222 283 222.359 287.078 223 289 C 223.38 290.139 224.25 291.062 225 292 C 225.588 292.735 226.216 293.478 227 294 C 227.277 294.185 228 294 228 294 "/>
</svg>