<svg version="1.1" width="481.1499938964844" height="361" viewBox="0.3500000238418579 -0.5 481.1499938964844 361" xmlns="http://www.w3.org/2000/svg" xmlns:xlink="http://www.w3.org/1999/xlink">
  <!-- Exported by Scratch - http://scratch.mit.edu/ -->
  <path id="ID0.49962589237838984" fill="#000000" stroke="none" d="M 1 0 L 481 0 L 481 360 L 1 360 L 1 0 Z " stroke-width="1"/>
  <path id="ID0.709217737428844" fill="#FFFFFF" stroke="none" d="M 1 0 L 64.2644 0 L 64.2644 16.9195 L 1 16.9195 L 1 0 Z " stroke-width="0.7356321811676025"/>
  <path id="ID0.709217737428844" fill="#FFFFFF" stroke="none" d="M 0.85 0 L 64.1144 0 L 64.1144 16.9195 L 0.85 16.9195 L 0.85 0 Z " stroke-width="0.7356321811676025"/>
  <path id="ID0.709217737428844" fill="#FFFFFF" stroke="none" d="M 0.85 0 L 64.1144 0 L 64.1144 16.9195 L 0.85 16.9195 L 0.85 0 Z " stroke-width="0.7356321811676025"/>
  <path id="ID0.709217737428844" fill="#FFFFFF" stroke="none" d="M 0.85 0.3 L 64.1144 0.3 L 64.1144 17.2195 L 0.85 17.2195 L 0.85 0.3 Z " stroke-width="0.7356321811676025"/>
  <text id="ID0.3196287048049271" fill="#000000" text-anchor="start" font-family="Sans Serif" font-size="22" transform="matrix(0.507988, 0, 0, 0.507988, 15.916, 0.0760352)" stroke-width="1" alignment-baseline="text-before-edge" xml:space="preserve"><tspan x="0" style="white-space: pre" dy="1.13em">BACK</tspan></text>
  <text id="ID0.3196287048049271" fill="#000000" text-anchor="start" font-family="Sans Serif" font-size="22" transform="matrix(0.507988, 0, 0, 0.507988, 15.866, 0.126035)" stroke-width="1" alignment-baseline="text-before-edge" xml:space="preserve"><tspan x="0" style="white-space: pre" dy="1.13em">BACK</tspan></text>
  <text id="ID0.3196287048049271" fill="#000000" text-anchor="start" font-family="Sans Serif" font-size="22" transform="matrix(0.507988, 0, 0, 0.507988, 15.866, 0.176035)" stroke-width="1" alignment-baseline="text-before-edge" xml:space="preserve"><tspan x="0" style="white-space: pre" dy="1.13em">BACK</tspan></text>
  <text id="ID0.3196287048049271" fill="#000000" text-anchor="start" font-family="Sans Serif" font-size="22" transform="matrix(0.507988, 0, 0, 0.507988, 15.866, 0.176035)" stroke-width="1" alignment-baseline="text-before-edge" xml:space="preserve"><tspan x="0" style="white-space: pre" dy="1.13em">BACK</tspan></text>
  <text id="ID0.5927385981194675" fill="#FFFFFF" text-anchor="start" font-family="Sans Serif" font-size="22" transform="matrix(0.326378, 0, 0, 0.326378, 16.7028, 16.8209)" stroke-width="1" alignment-baseline="text-before-edge" xml:space="preserve"><tspan x="0" style="white-space: pre" dy="1.13em">press [K]</tspan></text>
</svg>