<svg version="1.1" width="250.74478149414062" height="40.75" viewBox="-0.2447829246520996 -1 250.74478149414062 40.75" xmlns="http://www.w3.org/2000/svg" xmlns:xlink="http://www.w3.org/1999/xlink">
  <!-- Exported by Scratch - http://scratch.mit.edu/ -->
  <path id="ID0.5097120613791049" fill="#000000" stroke="none" d="M 249.25 0 C 249.319 0 249.381 0 249.427 0 C 249.472 0 249.5 0 249.5 0 C 249.5 0 249.472 0 249.427 0 C 249.381 0 249.319 0 249.25 0 C 249.181 0 249.119 0 249.073 0 C 249.028 0 249 0 249 0 C 249 0 249.028 0 249.073 0 C 249.119 0 249.181 0 249.25 0 Z " stroke-width="1"/>
  <g id="ID0.014751273673027754">
    <path id="ID0.8353482587262988" fill="#009999" stroke="#006666" stroke-width="1.5555555820465088" stroke-linecap="round" d="M 3.1833 11.6667 C 7.9978 7.6813 13.4523 3.9363 19.1278 3.8889 C 29.9016 3.7994 39.6603 11.6332 50.6278 11.2778 C 61.2281 10.9324 70.4059 2.1241 80.9611 1.5556 C 87.6134 1.2149 93.4553 4.9894 99.2389 7.7778 C 100.7276 8.5112 101.6344 8.89 101.1833 10.5 C 99.3781 16.9384 102.8338 25.8176 95.7389 27.2222 C 67.3609 32.8417 37.7937 30.4274 9.0167 28 C 1.8222 27.3933 4.7576 22.8278 3.9611 19.8333 C 2.9998 17.1484 2.1123 13.4983 3.9611 11.6667 Z "/>
    <path id="ID0.8353482587262988" fill="#009999" stroke="#006666" stroke-width="1.5555555820465088" stroke-linecap="round" d="M 2.8167 9.3389 C 7.7252 6.3584 15.0472 12.9587 21.0944 12.8389 C 30.686 12.6507 39.9112 8.1458 49.4833 8.1722 C 60.3178 8.1979 71.1872 12.8754 82.15 12.45 C 88.3022 12.2112 93.8812 5.7712 100.4278 6.2278 C 102.8109 6.4129 101.988 11.2196 101.6333 13.85 C 100.8338 19.6437 103.2838 29.1676 96.1889 30.5722 C 67.8109 36.1917 38.2437 33.7774 9.4667 31.35 C 2.2722 30.7433 5.262 26.2657 4.4111 23.1833 C 3.1581 18.6287 -0.6157 11.5307 2.8167 9.3389 Z "/>
    <path id="ID0.8353482587262988" fill="#009999" stroke="#006666" stroke-width="1.5555555820465088" stroke-linecap="round" d="M 1.6611 18.3 C 5.9723 14.0736 12.0468 10.6786 17.8778 10.6389 C 28.6516 10.5658 38.4103 18.3832 49.3778 18.0278 C 59.9781 17.6824 69.145 9.1214 79.7111 8.3056 C 86.2001 7.8093 92.5087 11.0449 98.4944 13.6333 C 100.2196 14.6398 102.3172 16.7266 101.9944 18.6889 C 100.9071 24.2539 101.6009 32.7192 94.4889 33.9722 C 66.0401 38.9834 36.5616 36.9612 7.7667 34.75 C 0.5683 34.197 3.1264 29.9457 2.05 26.8556 C 1.1618 24.1956 -0.1464 20.3557 1.6611 18.3 Z "/>
  </g>
  <path id="ID0.4236370651051402" fill="none" stroke="#FF0000" stroke-width="2" stroke-linecap="round" d="M 26.5 38.75 L 78.75 2 "/>
  <path id="ID0.22382893320173025" fill="none" stroke="#FF0000" stroke-width="2" stroke-linecap="round" d="M 27.25 2.25 L 78.5 37.25 "/>
</svg>