<svg version="1.1" width="102.87391495704651" height="37.08837342262268" viewBox="0.5940698385238647 0.6062905788421631 102.87391495704651 37.08837342262268" xmlns="http://www.w3.org/2000/svg" xmlns:xlink="http://www.w3.org/1999/xlink">
  <defs>
    <linearGradient id="grad_1" y2="1" x2="0">
      <stop offset="0" stop-color="#AADFFF" stop-opacity="1"/>
      <stop offset="1" stop-color="#67BCFF" stop-opacity="1"/>
    </linearGradient>
    <linearGradient id="grad_2" y2="1" x2="0">
      <stop offset="0" stop-color="#AADFFF" stop-opacity="1"/>
      <stop offset="1" stop-color="#67BCFF" stop-opacity="1"/>
    </linearGradient>
    <linearGradient id="grad_3" y2="1" x2="0">
      <stop offset="0" stop-color="#AADFFF" stop-opacity="1"/>
      <stop offset="1" stop-color="#67BCFF" stop-opacity="1"/>
    </linearGradient>
  <linearGradient id="grad_1-.7777777910232544,0,0,0.7777777910232544,-180.5,-132.1" y2="30.5089" x2="3.5322" x1="3.5322" y1="1.384" gradientUnits="userSpaceOnUse">
      <stop offset="0" stop-color="#AADFFF" stop-opacity="1"/>
      <stop offset="1" stop-color="#67BCFF" stop-opacity="1"/>
    </linearGradient><linearGradient id="grad_2-.7777777910232544,0,0,0.7777777910232544,-180.0722222149372,-128.7555554986" y2="33.8534" x2="2.0383" x1="2.0383" y1="6.0491" gradientUnits="userSpaceOnUse">
      <stop offset="0" stop-color="#AADFFF" stop-opacity="1"/>
      <stop offset="1" stop-color="#67BCFF" stop-opacity="1"/>
    </linearGradient><linearGradient id="grad_3-.7777777910232544,0,0,0.7777777910232544,-181.78333335518838,-125.37222210764884" y2="36.9169" x2="1.3719" x1="1.3719" y1="8.0825" gradientUnits="userSpaceOnUse">
      <stop offset="0" stop-color="#AADFFF" stop-opacity="1"/>
      <stop offset="1" stop-color="#67BCFF" stop-opacity="1"/>
    </linearGradient></defs>
  <!-- Exported by Scratch - http://scratch.mit.edu/ -->
  <g id="ID0.014751273673027754">
    <path id="ID0.8353482587262988" fill="url(#grad_1-.7777777910232544,0,0,0.7777777910232544,-180.5,-132.1)" stroke="#67BCFF" stroke-width="1.5555555820465088" stroke-linecap="round" d="M 3.8333 11.5167 C 8.6478 7.5313 14.1023 3.7863 19.7778 3.7389 C 30.5516 3.6494 40.3103 11.4832 51.2778 11.1278 C 61.8781 10.7824 71.0559 1.9741 81.6111 1.4056 C 88.2634 1.0649 94.1053 4.8394 99.8889 7.6278 C 101.3776 8.3612 102.2844 8.74 101.8333 10.35 C 100.0281 16.7884 103.4838 25.6676 96.3889 27.0722 C 68.0109 32.6917 38.4437 30.2774 9.6667 27.85 C 2.4722 27.2433 5.4076 22.6778 4.6111 19.6833 C 3.6498 16.9984 2.7623 13.3483 4.6111 11.5167 Z "/>
    <path id="ID0.8353482587262988" fill="url(#grad_2-.7777777910232544,0,0,0.7777777910232544,-180.0722222149372,-128.7555554986)" stroke="#67BCFF" stroke-width="1.5555555820465088" stroke-linecap="round" d="M 3.4444 9.1833 C 8.353 6.2029 15.675 12.8031 21.7222 12.6833 C 31.3138 12.4951 40.539 7.9902 50.1111 8.0167 C 60.9456 8.0423 71.815 12.7199 82.7778 12.2944 C 88.93 12.0557 94.509 5.6157 101.0556 6.0722 C 103.4387 6.2573 102.6158 11.064 102.2611 13.6944 C 101.4616 19.4881 103.9116 29.012 96.8167 30.4167 C 68.4387 36.0361 38.8714 33.6219 10.0944 31.1944 C 2.9 30.5878 5.8898 26.1101 5.0389 23.0278 C 3.7859 18.4731 0.0121 11.3751 3.4444 9.1833 Z "/>
    <path id="ID0.8353482587262988" fill="url(#grad_3-.7777777910232544,0,0,0.7777777910232544,-181.78333335518838,-125.37222210764884)" stroke="#67BCFF" stroke-width="1.5555555820465088" stroke-linecap="round" d="M 2.2778 18.1278 C 6.589 13.9013 12.6634 10.5063 18.4944 10.4667 C 29.2682 10.3936 39.027 18.211 49.9944 17.8556 C 60.5948 17.5102 69.7617 8.9492 80.3278 8.1333 C 86.8168 7.6371 93.1253 10.8727 99.1111 13.4611 C 100.8362 14.4676 102.9339 16.5543 102.6111 18.5167 C 101.5238 24.0817 102.2176 32.547 95.1056 33.8 C 66.6568 38.8112 37.1782 36.789 8.3833 34.5778 C 1.185 34.0248 3.7431 29.7734 2.6667 26.6833 C 1.7784 24.0233 0.4702 20.1834 2.2778 18.1278 Z "/>
  </g>
</svg>