<svg version="1.1" width="86.8822720828502" height="39.10757191805529" viewBox="0.5616267530695234 0.5760223476663862 86.8822720828502 39.10757191805529" xmlns="http://www.w3.org/2000/svg" xmlns:xlink="http://www.w3.org/1999/xlink">
  <defs>
    <linearGradient id="grad_1" y2="1" x2="0">
      <stop offset="0" stop-color="#000000" stop-opacity="1"/>
      <stop offset="1" stop-color="#000000" stop-opacity="0"/>
    </linearGradient>
    <radialGradient id="grad_2" cx="0.41619999999999996" cy="0.8402" r="1.09226">
      <stop offset="0" stop-color="#4C4C4B" stop-opacity="1"/>
      <stop offset="1" stop-color="#161616" stop-opacity="1"/>
    </radialGradient>
    <radialGradient id="grad_3" cx="0.8665" cy="0.32880000000000004" r="1.12645">
      <stop offset="0" stop-color="#6A6A69" stop-opacity="1"/>
      <stop offset="1" stop-color="#2B2B2B" stop-opacity="1"/>
    </radialGradient>
    <radialGradient id="grad_4" cx="0.3003" cy="0.5231" r="0.90961">
      <stop offset="0" stop-color="#8C8D8B" stop-opacity="1"/>
      <stop offset="1" stop-color="#434342" stop-opacity="1"/>
    </radialGradient>
    <linearGradient id="grad_5" y2="1" x2="0">
      <stop offset="0" stop-color="#4F4F4E" stop-opacity="1"/>
      <stop offset="1" stop-color="#222222" stop-opacity="1"/>
    </linearGradient>
  <linearGradient id="grad_1-.7298848628997803,0,0,0.7298848628997803,-133.15,-112.2" y2="38.9998" x2="2.2965" x1="2.2965" y1="8.9386" gradientUnits="userSpaceOnUse">
      <stop offset="0" stop-color="#000000" stop-opacity="1"/>
      <stop offset="1" stop-color="#000000" stop-opacity="0"/>
    </linearGradient><radialGradient id="grad_2-.6125333309173584,0,0,0.5708438158035278,-109.15,-85.7" cx="43.1848" cy="29.779" r="59.1701" gradientUnits="userSpaceOnUse">
      <stop offset="0" stop-color="#4C4C4B" stop-opacity="1"/>
      <stop offset="1" stop-color="#161616" stop-opacity="1"/>
    </radialGradient><radialGradient id="grad_3-.6125333309173584,0,0,0.5708438158035278,-108.95,-85.7" cx="76.4651" cy="11.1083" r="61.4902" gradientUnits="userSpaceOnUse">
      <stop offset="0" stop-color="#6A6A69" stop-opacity="1"/>
      <stop offset="1" stop-color="#2B2B2B" stop-opacity="1"/>
    </radialGradient><radialGradient id="grad_4-.6125333309173584,0,0,0.5708438158035278,-108.95,-85.85" cx="33.26" cy="13.9415" r="44.2278" gradientUnits="userSpaceOnUse">
      <stop offset="0" stop-color="#8C8D8B" stop-opacity="1"/>
      <stop offset="1" stop-color="#434342" stop-opacity="1"/>
    </radialGradient><linearGradient id="grad_5-.5585489869117737,-0.1178373396396637,0.1178373396396637,0.5585489869117737,-125.55,-59" y2="36.7074" x2="1.5512" x1="1.0636" y1="34.3963" gradientUnits="userSpaceOnUse">
      <stop offset="0" stop-color="#4F4F4E" stop-opacity="1"/>
      <stop offset="1" stop-color="#222222" stop-opacity="1"/>
    </linearGradient></defs>
  <!-- Exported by Scratch - http://scratch.mit.edu/ -->
  <g id="ID0.7474732175469398">
    <path id="ID0.46158635104075074" fill="url(#grad_1-.7298848628997803,0,0,0.7298848628997803,-133.15,-112.2)" stroke="none" stroke-linecap="round" d="M 25.9649 29.8721 C 34.0403 24.776 36.5015 9.9864 46.0367 9.0704 C 60.2133 7.8471 75.0029 15.3094 85.8155 24.4709 C 89.4437 27.5459 81.8894 31.8596 75.5474 34.4032 C 69.2055 36.9469 60.4469 38.5212 50.781 38.5212 C 41.1151 38.5212 34.3739 34.2704 26.0145 34.4032 C 18.4799 34.5236 11.2563 38.5439 3.7034 38.9956 C 1.8101 39.1088 1.8451 36.8856 3.7034 36.0761 C 11.1366 32.8391 19.4565 33.9784 25.9649 29.8721 Z " stroke-width="0.7298848628997803"/>
    <g id="ID0.8400700856000185">
      <path id="ID0.06319318618625402" fill="url(#grad_2-.6125333309173584,0,0,0.5708438158035278,-109.15,-85.7)" stroke="#000000" stroke-width="1.1841112646418377" stroke-linecap="round" d="M 72.1599 6.7767 C 78.2748 8.4082 81.0581 15.4021 84.7168 20.1915 C 85.6313 21.3892 85.8671 23.2244 85.0231 24.1874 C 82.214 26.8419 78.763 29.1224 74.9163 29.8959 C 61.6911 32.5554 47.8337 34.9638 34.1828 34.4626 C 27.4051 34.2132 19.9475 31.9509 14.888 27.6125 C 12.2921 25.3845 12.4115 20.0979 14.888 17.6227 C 19.931 12.3356 27.2428 8.5024 34.7953 7.0621 C 46.9847 4.7371 60.074 3.5531 72.1599 6.7767 Z "/>
      <path id="ID0.06319318618625402" fill="url(#grad_3-.6125333309173584,0,0,0.5708438158035278,-108.95,-85.7)" stroke="#000000" stroke-width="1.1841112646418377" stroke-linecap="round" d="M 69.3891 5.6065 C 73.9702 6.7173 78.1465 9.5167 81.3641 12.742 C 83.8112 15.3833 87.8582 21.4862 85.6518 22.4464 C 82.3674 23.8381 75.4262 18.5018 70.0322 17.5942 C 65.9301 16.908 61.7349 16.344 58.0878 17.5942 C 49.0848 20.5335 41.9513 27.7746 32.974 29.8673 C 27.1433 31.2259 20.1757 30.5426 15.088 27.6125 C 12.3647 26.0444 11.9365 20.9924 14.0161 18.7359 C 20.5402 11.6586 28.9888 4.7177 38.8543 2.4668 C 48.7216 0.039 59.335 3.1701 69.3891 5.6065 Z "/>
      <path id="ID0.06319318618625402" fill="url(#grad_4-.6125333309173584,0,0,0.5708438158035278,-108.95,-85.85)" stroke="#000000" stroke-width="1.1841112646418377" stroke-linecap="round" d="M 65.9589 3.0589 C 71.1991 3.9957 79.001 10.4348 79.5571 10.9937 C 80.125 11.5599 73.2781 6.9977 69.6647 6.7694 C 63.9185 6.4064 57.7736 6.8853 52.5444 9.3382 C 44.9355 13.0738 40.627 21.798 32.3614 24.751 C 27.082 26.6376 20.8097 24.5997 15.5168 22.753 C 13.9818 22.2119 12.4872 20.2145 14.0161 18.7571 C 19.9907 12.5555 26.4119 5.5398 34.8116 3.0589 C 44.6979 0.1408 55.7645 1.2419 65.9589 3.0589 Z "/>
      <path id="ID0.7353912447579205" fill="none" stroke="#000000" stroke-width="1.1416876316070557" stroke-linecap="round" d="M 21.446 23.902 C 21.446 23.902 28.8219 13.2358 34.0046 9.6309 C 39.2175 6.0175 45.5173 3.9253 51.7007 2.581 C 56.2795 1.6962 65.6864 3.0662 65.6864 3.0662 "/>
      <path id="ID0.5795704228803515" fill="url(#grad_5-.5585489869117737,-0.1178373396396637,0.1178373396396637,0.5585489869117737,-125.55,-59)" stroke="#000000" stroke-width="1.1416875393793562" stroke-linecap="round" d="M 10.0154 32.582 C 13.5796 31.7921 17.2311 30.8514 20.9365 30.4238 C 21.8208 30.3259 22.1381 30.7905 22.1202 31.1951 C 22.0937 31.6475 21.8261 31.8417 20.999 32.1025 C 17.5242 33.181 13.9681 34.0537 10.4867 34.8162 C 7.6951 35.4273 4.8732 35.9999 2.0272 36.259 C 1.3157 36.324 1.427 35.9528 1.3319 35.6683 C 1.2942 35.3233 1.0213 34.9205 1.6939 34.6795 C 4.3844 33.7163 7.2253 33.2004 10.0154 32.582 Z "/>
      <path id="ID0.19946293393149972" fill="#CCCCCC" stroke="#000000" stroke-width="1.3676465335338048" stroke-linecap="round" d="M 37.5894 8.2518 C 37.9838 8.3529 37.3347 8.4273 36.7349 8.9653 C 32.6274 13.0329 30.8313 14.8392 28.0473 17.4004 C 27.3952 18.1736 27.19 18.8801 26.8927 18.5312 C 26.281 17.8102 26.1673 16.3352 26.4562 15.2456 C 26.7133 13.6563 27.3651 12.0691 28.4613 10.8273 C 29.5607 9.5978 31.0859 8.5486 32.5981 8.1233 C 34.1991 7.672 36.0124 7.8488 37.5894 8.2518 Z "/>
    </g>
  </g>
</svg>