<svg version="1.1" width="96.9202880859375" height="93.68214416503906" viewBox="15.12985610961914 17.148365020751953 96.9202880859375 93.68214416503906" xmlns="http://www.w3.org/2000/svg" xmlns:xlink="http://www.w3.org/1999/xlink">
  <defs>
    <radialGradient id="grad_1" cx="0.5196999999999999" cy="0.5014" r="0.6756099999999999">
      <stop offset="0" stop-color="#FFFCDE" stop-opacity="1"/>
      <stop offset="1" stop-color="#FFFCDE" stop-opacity="0"/>
    </radialGradient>
    <radialGradient id="grad_2" cx="0.5196999999999999" cy="0.5014" r="0.6756099999999999">
      <stop offset="0" stop-color="#FFFCDE" stop-opacity="1"/>
      <stop offset="1" stop-color="#FFFCDE" stop-opacity="0"/>
    </radialGradient>
  <radialGradient id="grad_1-,0,0,1,-203.5,-118.5" cx="65.4808" cy="64.0397" r="61.9493" gradientUnits="userSpaceOnUse">
      <stop offset="0" stop-color="#FFFCDE" stop-opacity="1"/>
      <stop offset="1" stop-color="#FFFCDE" stop-opacity="0"/>
    </radialGradient><radialGradient id="grad_2-.8206731677055359,0.5713978409767151,-0.5713978409767151,0.8206731677055359,-51.05,-238.15" cx="65.3925" cy="65.3505" r="61.9493" gradientUnits="userSpaceOnUse">
      <stop offset="0" stop-color="#FFFCDE" stop-opacity="1"/>
      <stop offset="1" stop-color="#FFFCDE" stop-opacity="0"/>
    </radialGradient></defs>
  <!-- Exported by Scratch - http://scratch.mit.edu/ -->
  <g id="ID0.38325820676982403">
    <path id="ID0.8203243482857943" fill="url(#grad_1-,0,0,1,-203.5,-118.5)" stroke="none" d="M 64.375 36.75 C 73.023 36.579 77.972 25.683 84.75 20 C 86.322 18.613 84.826 17.401 84.75 19.5 C 84.446 27.895 78.125 38.286 83.55 44.7 C 88.54 50.594 99.275 45.235 107.25 45.5 C 109.088 45.566 108.534 43.948 107.25 45.5 C 102.115 51.708 91.268 55.82 91.5 63.875 C 91.737 72.013 102.837 75.883 108.5 82 C 109.888 83.401 110.575 81.878 108.5 82 C 100.204 82.477 89.765 77.527 83.55 83.05 C 78.227 87.786 83.349 97.607 83.25 105 C 83.225 106.692 84.849 106.129 83.25 105 C 76.879 100.477 72.176 90.387 64.375 91 C 56.437 91.624 52.825 102.295 47 108 C 45.62 109.347 46.935 110.343 46.75 108.25 C 46.011 99.878 51.281 88.854 45.2 83.05 C 38.957 77.096 27.631 82.523 18.75 82 C 16.682 81.875 17.519 83.004 19 81.5 C 24.925 75.483 37.013 72.32 37.25 63.875 C 37.479 55.655 25.575 51.911 19.75 45.75 C 18.378 44.36 17.365 45.379 19.5 45.25 C 28.042 44.733 38.851 50.442 45.2 44.7 C 51.058 39.401 45.957 28.765 46.25 20.75 C 46.398 18.819 44.743 19.687 46.25 21 C 52.278 26.252 56.381 36.905 64.375 36.75 Z " stroke-width="1"/>
    <path id="ID0.8203243482857943" fill="url(#grad_2-.8206731677055359,0.5713978409767151,-0.5713978409767151,0.8206731677055359,-51.05,-238.15)" stroke="none" d="M 80.0783 42.3227 C 87.2732 47.1238 97.5607 41.0096 106.3704 40.2187 C 108.4531 39.9786 107.9179 38.1292 106.6561 39.8083 C 101.6098 46.5242 90.4849 51.44 91.2721 59.8036 C 91.9994 67.4919 103.8715 69.2279 110.2649 74.0023 C 111.7356 75.1067 112.2055 73.4623 110.2649 74.0023 C 102.5035 76.1629 91.2521 73.3395 86.8399 80.0826 C 82.3844 86.8967 89.2825 96.4152 90.4348 104.6711 C 90.7733 106.614 92.2074 105.7566 90.4348 104.6711 C 83.3539 100.3222 77.6153 90.2951 69.359 91.2764 C 62.2844 92.1216 60.8762 103.1081 56.5706 109.1188 C 55.5833 110.4931 57.2378 110.959 56.5706 109.1188 C 53.9265 101.7665 55.8323 90.7986 49.08 86.8442 C 42.2089 82.8206 33.1473 89.5141 25.107 90.8676 C 23.2048 91.1845 23.7149 92.7533 24.759 90.93 C 28.9363 83.637 39.5603 77.6012 37.8862 69.3633 C 36.1648 60.9098 23.7689 58.8919 16.7793 53.3881 C 15.1536 52.1039 15.1954 53.5087 17.2702 53.1207 C 25.5708 51.5682 37.2984 55.8795 42.3184 49.0843 C 47.2032 42.4692 39.5732 32.5947 38.3132 24.2101 C 37.9815 22.2854 36.5679 22.5429 38.3937 23.6569 C 45.6993 28.1135 51.3079 38.975 59.7993 37.8905 C 67.6346 36.889 69.5258 25.2456 74.346 18.8353 C 75.5708 17.3352 73.7166 17.1019 74.2031 19.0405 C 76.1492 26.7951 73.4293 37.8822 80.0783 42.3227 Z " stroke-width="0.9999999704323446"/>
  </g>
</svg>